# xmcd CD database file
#
# Track frame offsets:
#	150
#	14298
#	29465
#	43948
#	59741
#	74309
#	92079
#	108913
#	121992
#	140872
#	158026
#
# Disc length: 2309 seconds
#
# Revision: 0
# Processed by: cddbd v1.5.1PL0 Copyright (c) Steve Scherf et al.
# Submitted via: CDex 1.51
#
DISCID=9d09030b
DTITLE=Mark Huhta - Mark Huhta
DYEAR=2003
DGENRE=Country
TTITLE0=That Ain't Me
TTITLE1=One More Beer, I'm Outta Here
TTITLE2=2 Comma Girl
TTITLE3=Good Ol' USA
TTITLE4=As Long As We Meet In Heaven
TTITLE5=Strangers
TTITLE6=Day After Day
TTITLE7=Didn't Want To Love Again
TTITLE8=Speak Of The Angel
TTITLE9=Hold Me
TTITLE10=Guitars and Guns
EXTD=YEAR: 2003
EXTT0=
EXTT1=
EXTT2=
EXTT3=
EXTT4=
EXTT5=
EXTT6=
EXTT7=
EXTT8=
EXTT9=
EXTT10=
PLAYORDER=
